/* XPM */
static char *result[] = {
/* columns rows colors chars-per-pixel */
"17 17 211 2 ",
"   c black",
".  c #010000",
"X  c #000100",
"o  c #010100",
"O  c #030000",
"+  c #000200",
"@  c #000300",
"#  c #000201",
"$  c #000002",
"%  c #000102",
"&  c #010103",
"*  c #010302",
"=  c #040100",
"-  c #050100",
";  c #060000",
":  c #070000",
">  c #060100",
",  c #050200",
"<  c #070300",
"1  c #040002",
"2  c #020401",
"3  c #000600",
"4  c #000403",
"5  c #000503",
"6  c #050503",
"7  c #000004",
"8  c #010004",
"9  c #000005",
"0  c #010005",
"q  c #000304",
"w  c #000205",
"e  c #000007",
"r  c #000107",
"t  c #000306",
"y  c #040005",
"u  c #010705",
"i  c #040507",
"p  c #080000",
"a  c #090000",
"s  c #0A0000",
"d  c #0B0000",
"f  c #0C0203",
"g  c #090601",
"h  c #0A0104",
"j  c #0A0005",
"k  c #080607",
"l  c #000008",
"z  c #000108",
"x  c #000009",
"c  c #000209",
"v  c #00000B",
"b  c #07000A",
"n  c #020609",
"m  c #00000C",
"M  c #00000D",
"N  c #00010D",
"B  c #03000E",
"V  c #090209",
"C  c #030C0B",
"Z  c #0A090E",
"A  c #1C0E03",
"S  c #190A05",
"D  c #190F05",
"F  c #1E1003",
"G  c #1F1104",
"H  c #1F1106",
"J  c #1E1408",
"K  c #1C110F",
"L  c #1A150F",
"P  c #1F140E",
"I  c #1E150E",
"U  c #040011",
"Y  c #050213",
"T  c #040410",
"R  c #040612",
"E  c #0D0514",
"W  c #1B1110",
"Q  c #1B1112",
"!  c #1C1210",
"~  c #1D1314",
"^  c #11101E",
"/  c #19141A",
"(  c #1C1A1F",
")  c #270C00",
"_  c #270D00",
"`  c #2A0B00",
"'  c #290F00",
"]  c #210F0B",
"[  c #221203",
"{  c #221004",
"}  c #211006",
"|  c #201207",
" . c #291105",
".. c #201209",
"X. c #26120B",
"o. c #201408",
"O. c #211509",
"+. c #231508",
"@. c #22100C",
"#. c #22130C",
"$. c #20160C",
"%. c #22150F",
"&. c #20170E",
"*. c #26150D",
"=. c #28150E",
"-. c #22180E",
";. c #261A0C",
":. c #301303",
">. c #261410",
",. c #211A14",
"<. c #241B14",
"1. c #231A1F",
"2. c #221C1E",
"3. c #141625",
"4. c #1D1626",
"5. c #1A1921",
"6. c #1B1823",
"7. c #1C1A27",
"8. c #1D1C24",
"9. c #1F1E26",
"0. c #1A1229",
"q. c #19152E",
"w. c #1A1929",
"e. c #1C1A28",
"r. c #1D1B28",
"t. c #1C192A",
"y. c #1B1D2A",
"u. c #1C182F",
"i. c #201B22",
"p. c #251E25",
"a. c #1F2034",
"s. c #212026",
"d. c #3E2D23",
"f. c #282038",
"g. c #4B2B14",
"h. c #51321D",
"j. c #493421",
"k. c #493125",
"l. c #4B3327",
"z. c #4A3426",
"x. c #47362E",
"c. c #4A3728",
"v. c #48372F",
"b. c #4D372C",
"n. c #4F3A29",
"m. c #4D3A2B",
"M. c #4A382C",
"N. c #4C3A2C",
"B. c #4D392E",
"V. c #513220",
"C. c #513520",
"Z. c #503A2D",
"A. c #413332",
"S. c #463636",
"D. c #493831",
"F. c #543C30",
"G. c #543E30",
"H. c #734F2D",
"J. c #72512E",
"K. c #78522E",
"L. c #624B3B",
"P. c #684E3D",
"I. c #63503F",
"U. c #61523F",
"Y. c #6B503B",
"T. c #6B503D",
"R. c #6B503F",
"E. c #6D503E",
"W. c #765630",
"Q. c #7C5430",
"!. c #765834",
"~. c #73503C",
"^. c #75523C",
"/. c #76533F",
"(. c #73543F",
"). c #74543D",
"_. c #6F5240",
"`. c #6E5342",
"'. c #6E5541",
"]. c #6F5546",
"[. c #6C5746",
"{. c #6F5A47",
"}. c #735440",
"|. c #705542",
" X c #715643",
".X c #745541",
"XX c #715645",
"oX c #705647",
"OX c #745842",
"+X c #785944",
"@X c #795A46",
"#X c #715A4A",
"$X c #785D4A",
"%X c #8A745C",
"&X c #8F7A5D",
"*X c #997457",
"=X c #9C7556",
"-X c #91755D",
";X c #97755C",
":X c #987758",
">X c #9F7658",
",X c #997A5B",
"<X c #9D785B",
"1X c #9C785E",
"2X c #8C7860",
"3X c #927A62",
"4X c #957963",
"5X c #957D61",
"6X c #967E62",
"7X c #987861",
"8X c #9A7F61",
/* pixels */
"+ X n e 3.a.u.q.f.0.4.6.s.% 4 + X ",
"X + % z R ^ Y U B E b i.7 i + 4 X ",
"@ # % w 7 Z 8 1 h ; ; ; . X u + X ",
"X * o 6 O L &.O.H F o.$.; . 2 X   ",
"- > ; : ;.U.2X&X5X6X%X{.[ s ; < . ",
"; : p | I.3X8X!.W.J.,X-X[.} d ; . ",
"j p s =.#X4X:XH.Q.K.*X7X].X.d f O ",
"y V s S b. X;X<X>X=X1X.Xk.] a 1 . ",
"N x 8 ; %.B.R.}./.~._.l.#.: 8 9 $ ",
"c r t . ! *. .) ` :._ { P - 7 9 $ ",
"q C + . I d.G.XXV.E.oXN.D o + 5 X ",
"@ 3 + , -.M.L.|.@XC.'.c.J = + @ X ",
"+ X = a G z.$X(.^.g.OXj.+.; . +   ",
"    g <.A m.T.h.).+XY.n...,.k $   ",
"T x 0 2.K x.F.' `.P.Z.v.W / m v 7 ",
"m v 9.( 1.Q S.@.D.>.A.~ p.5.y.M 7 ",
"7 7 & 9 r.w.e.7.7.e.t.e.8.9 l e $ "
};
